PathFileType	4	(X/Y/Z)	/Users/itak/Documents/Research/Walk-IL/dataset/trc/00204_00008.trc
DataRate	CameraRate	NumFrames	NumMarkers	Units	OrigDataRate	OrigDataStartFrame	OrigNumFrames
100.000000	100.000000	4	53	mm	100.000000	311	499
Frame#	Time	RPSI			LPSI			L3			STRN			T10			C7			CLAV			RBAK			LBAK			LSHO			LUPA			LAEL			LAOL			LWTS			LWPS			LFRA			LIFD			LHPS			LHTS			RSHO			RUPA			RAEL			RAOL			RWTS			RWPS			RFRA			RIFD			RHTS			RHPS			RBHD			LFHD			RFHD			LBHD			LHIP			RHIP			RASI			LASI			LKNE			LTHI			LANK			LTIP			LTOE			LMT1			LMT5			LHEE			RKNE			RTHI			RANK			RTIP			RTOE			RMT1			RMT5			RHEE			
		X1	Y1	Z1	X2	Y2	Z2	X3	Y3	Z3	X4	Y4	Z4	X5	Y5	Z5	X6	Y6	Z6	X7	Y7	Z7	X8	Y8	Z8	X9	Y9	Z9	X10	Y10	Z10	X11	Y11	Z11	X12	Y12	Z12	X13	Y13	Z13	X14	Y14	Z14	X15	Y15	Z15	X16	Y16	Z16	X17	Y17	Z17	X18	Y18	Z18	X19	Y19	Z19	X20	Y20	Z20	X21	Y21	Z21	X22	Y22	Z22	X23	Y23	Z23	X24	Y24	Z24	X25	Y25	Z25	X26	Y26	Z26	X27	Y27	Z27	X28	Y28	Z28	X29	Y29	Z29	X30	Y30	Z30	X31	Y31	Z31	X32	Y32	Z32	X33	Y33	Z33	X34	Y34	Z34	X35	Y35	Z35	X36	Y36	Z36	X37	Y37	Z37	X38	Y38	Z38	X39	Y39	Z39	X40	Y40	Z40	X41	Y41	Z41	X42	Y42	Z42	X43	Y43	Z43	X44	Y44	Z44	X45	Y45	Z45	X46	Y46	Z46	X47	Y47	Z47	X48	Y48	Z48	X49	Y49	Z49	X50	Y50	Z50	X51	Y51	Z51	X52	Y52	Z52	X53	Y53	Z53	

312	3.11	38.8400993347168	1043.741943359375	31.49745178222656	135.4127960205078	1048.304931640625	-44.6589241027832	81.22823333740234	1083.384033203125	-7.38539981842041	230.2096405029297	1302.673095703125	204.4091491699219	62.95391845703125	1239.240844726562	-44.53744888305664	102.2857055664062	1510.548950195312	3.623125076293945	214.8732604980469	1415.899780273438	176.3343811035156	-20.31489753723145	1330.242431640625	9.418269157409668	183.5398864746094	1491.512329101562	-57.86317825317383	291.8340148925781	1485.228393554688	-36.26613616943359	340.3431091308594	1354.867431640625	-101.7754821777344	370.0839538574219	1137.169555664062	-96.76676940917969	282.257080078125	1118.066162109375	-91.79967498779297	419.5453491210938	910.4806518554688	20.5089054107666	408.2290954589844	886.5527954101562	-68.94860076904297	394.8701477050781	1027.80322265625	-89.44508361816406	412.2526550292969	728.2312622070312	49.72958374023438	419.4063720703125	818.0526123046875	-47.9893798828125	445.3184204101562	831.5869140625	19.75627708435059	-12.14948558807373	1488.118408203125	157.0559539794922	-79.56407928466797	1420.415771484375	175.3175964355469	-134.7175903320312	1131.592163085938	188.2312469482422	-48.83828353881836	1124.827392578125	137.6540832519531	-33.99861526489258	916.3157958984375	313.5355834960938	-109.3949356079102	891.0430297851562	271.599609375	-133.2893829345703	1059.730712890625	223.1877899169922	9.377242088317871	733.202392578125	324.1466369628906	-21.91458511352539	826.7871704101562	348.3448791503906	-88.06456756591797	812.3458251953125	301.8976440429688	72.35203552246094	1673.614135742188	103.9605484008789	261.0175170898438	1712.03466796875	201.9522705078125	147.4680480957031	1699.891967773438	259.7802734375	189.0591125488281	1694.354125976562	37.77940368652344	292.6683959960938	991.8388061523438	-37.8736457824707	38.41194915771484	1000.789184570312	232.8089141845703	129.1318664550781	1034.0087890625	260.124755859375	328.56640625	1037.31640625	94.61619567871094	377.7161865234375	494.7831420898438	13.07780265808105	369.0877380371094	643.1504516601562	2.385279655456543	106.3220062255859	226.1704711914062	-294.0456848144531	263.6001586914062	356.6091613769531	-139.1294250488281	191.3998870849609	68.96270751953125	-180.5897216796875	136.0053253173828	105.0595397949219	-164.9405059814453	169.6763916015625	133.6757659912109	-283.1637573242188	42.59173202514648	271.1633911132812	-263.6153564453125	164.9226379394531	507.87451171875	253.7988128662109	101.2917251586914	775.2615356445312	289.9729614257812	196.4854278564453	33.0096549987793	151.5251617431641	202.3521728515625	389.5747985839844	251.1757202148438	309.5	44.76077270507812	347.4580383300781	331.9137573242188	43.75771331787109	281.2171630859375	206.2176971435547	38.29361724853516	269.4329223632812	241.8766326904297	33.0704345703125	81.09825134277344	
313	3.12	44.29371643066406	1044.416015625	37.50605773925781	141.9142608642578	1049.243286132812	-36.96510314941406	87.26115417480469	1084.106811523438	-0.2772206962108612	233.197265625	1303.857299804688	213.0569152832031	68.51846313476562	1240.117431640625	-37.34476852416992	107.3361434936523	1511.391479492188	10.88881301879883	218.3465728759766	1417.088623046875	184.660400390625	-15.33348751068115	1331.237670898438	15.82858180999756	189.0035247802734	1492.279052734375	-49.90058898925781	297.1370239257812	1485.973022460938	-27.4690113067627	345.7162170410156	1355.328979492188	-92.53705596923828	374.1657409667969	1137.414794921875	-86.81650543212891	286.261474609375	1118.754516601562	-82.16201019287109	421.9323425292969	910.9320678710938	31.63478469848633	411.2199096679688	886.732177734375	-57.83974075317383	398.4621276855469	1027.931030273438	-78.95269775390625	414.4576110839844	728.869873046875	61.48416519165039	422.19287109375	818.3216552734375	-36.53601455688477	447.6454467773438	832.0928344726562	31.35493659973145	-8.512115478515625	1489.619995117188	163.2704010009766	-76.26569366455078	1421.880737304688	181.0483856201172	-131.0799713134766	1132.730102539062	195.3727569580078	-44.92571640014648	1126.039794921875	145.1934204101562	-28.26514625549316	920.0554809570312	323.7590026855469	-103.1192932128906	893.2560424804688	281.761962890625	-128.9768218994141	1061.067993164062	231.1641235351562	17.52484512329102	737.7796630859375	337.0915832519531	-15.10807514190674	831.2274169921875	359.8212280273438	-80.84976196289062	815.2210083007812	313.2190246582031	76.27237701416016	1674.772583007812	111.1758117675781	264.8771057128906	1712.82568359375	210.3742218017578	151.0175018310547	1700.854370117188	267.56640625	193.8443145751953	1695.3486328125	45.76992416381836	299.2740783691406	992.9454956054688	-27.89675331115723	40.30185699462891	1001.071228027344	238.8031463623047	130.4548187255859	1034.959716796875	267.8644409179688	332.3626403808594	1038.460327148438	105.8211364746094	388.5454406738281	496.6117248535156	32.24120330810547	378.6487731933594	644.7333984375	18.97550010681152	124.3889083862305	221.9041442871094	-275.6105651855469	277.6719665527344	356.1214904785156	-120.0127792358398	210.8616638183594	69.26077270507812	-156.8268432617188	154.2966766357422	104.2086181640625	-143.3726806640625	189.905029296875	131.3934478759766	-261.2209167480469	58.95056533813477	266.1099243164062	-247.2246551513672	164.9973602294922	507.3733825683594	256.3366394042969	102.0310668945312	774.7284545898438	295.3366394042969	196.4559478759766	32.99678802490234	151.5127563476562	202.2481231689453	389.1542053222656	252.9658050537109	309.4283142089844	44.35945510864258	347.67529296875	331.842529296875	43.73946380615234	281.3804931640625	205.9576721191406	38.04165649414062	269.5197143554688	241.8871154785156	33.18917083740234	81.07365417480469	
314	3.13	49.77242660522461	1044.94970703125	43.41980361938477	148.4046020507812	1050.026000976562	-29.31576538085938	93.32673645019531	1084.67822265625	6.745739936828613	236.0673217773438	1304.91650390625	221.6813507080078	74.09764862060547	1240.894409179688	-30.25229263305664	112.3721160888672	1512.127685546875	18.0861759185791	221.7233734130859	1418.148681640625	192.9536743164062	-10.35258960723877	1332.122192382812	22.10200119018555	194.4804382324219	1492.948120117188	-41.95220947265625	302.4342651367188	1486.630126953125	-18.64250946044922	351.1417846679688	1355.7431640625	-83.31597900390625	378.2763366699219	1137.611328125	-77.02285003662109	290.2969970703125	1119.388916015625	-72.67781066894531	424.5256652832031	911.4612426757812	42.6727180480957	414.2671508789062	886.8758544921875	-46.76256942749023	402.0982360839844	1028.006225585938	-68.59431457519531	417.3206481933594	729.6734619140625	73.41387939453125	425.1911010742188	818.6134033203125	-25.05633735656738	450.3121337890625	832.755615234375	42.87947082519531	-4.96973705291748	1490.990112304688	169.3264312744141	-72.99372863769531	1423.202270507812	186.6336669921875	-127.4633560180664	1133.732055664062	202.3655395507812	-41.00083923339844	1127.114013671875	152.6048431396484	-22.53954315185547	923.690185546875	333.773681640625	-96.85804748535156	895.4115600585938	291.7954406738281	-124.6323394775391	1062.285522460938	239.0155487060547	25.57875442504883	742.2764892578125	349.6959838867188	-8.36652946472168	835.5435791015625	371.0308227539062	-73.67402648925781	818.0446166992188	324.37109375	80.22389984130859	1675.838745117188	118.3165283203125	268.7320556640625	1713.499755859375	218.6793823242188	154.5551605224609	1701.744140625	275.2535705566406	198.58837890625	1696.213134765625	53.67109298706055	305.9463195800781	994.0546875	-17.74951362609863	42.0134162902832	1001.212829589844	244.4369201660156	131.6008605957031	1035.758422851562	275.4967651367188	335.9524841308594	1039.398315429688	117.1533279418945	398.8932189941406	498.5525207519531	51.43127822875977	387.8681335449219	646.3485107421875	35.53714752197266	142.8632202148438	216.6221008300781	-256.5170288085938	291.6781616210938	355.2380065917969	-100.5780029296875	230.7417297363281	69.02397155761719	-132.2147827148438	173.0148010253906	102.6451950073242	-121.0248947143555	210.5896606445312	128.4168853759766	-238.4307098388672	75.66253662109375	259.8783874511719	-230.2844696044922	164.9740295410156	506.8582153320312	258.8117370605469	102.5825729370117	774.111083984375	300.5450439453125	196.4358978271484	32.99380111694336	151.4984588623047	202.077392578125	388.7278137207031	254.7076110839844	309.35693359375	44.03874588012695	347.8765258789062	331.7507934570312	43.7304573059082	281.5477294921875	205.6851501464844	37.7935791015625	269.6089172363281	241.9288635253906	33.31547546386719	81.04977416992188	
315	3.14	55.234375	1045.35009765625	49.26936721801758	154.8655242919922	1050.637329101562	-21.67968940734863	99.37578582763672	1085.110717773438	13.70328235626221	238.8342590332031	1305.833740234375	230.2882995605469	79.68194580078125	1241.56005859375	-23.24727058410645	117.3906860351562	1512.753295898438	25.23180770874023	225.011474609375	1419.0615234375	201.2237854003906	-5.376747608184814	1332.894897460938	28.25569343566895	199.9756164550781	1493.506958007812	-34.00542831420898	307.7326354980469	1487.176879882812	-9.768787384033203	356.623046875	1356.089233398438	-74.09413146972656	382.4522094726562	1137.736694335938	-67.36895751953125	294.3992004394531	1119.939453125	-63.34196090698242	427.3507690429688	912.0355224609375	53.62115859985352	417.4017944335938	886.961669921875	-35.72101593017578	405.8128662109375	1028.008178710938	-58.3608283996582	420.8303527832031	730.6029052734375	85.48861694335938	428.420166015625	818.8998413085938	-13.56085205078125	453.34130859375	833.5422973632812	54.3211555480957	-1.512118101119995	1492.188354492188	175.2266845703125	-69.73555755615234	1424.3603515625	192.1002655029297	-123.8696136474609	1134.582763671875	209.2070617675781	-37.07297134399414	1128.029663085938	159.8821868896484	-16.84877586364746	927.1947021484375	343.5723266601562	-90.62757873535156	897.4776000976562	301.6726684570312	-120.2695770263672	1063.3564453125	246.7311096191406	33.52971267700195	746.6719360351562	361.9811706542969	-1.715581655502319	839.7199096679688	381.9815673828125	-66.54993438720703	820.7890014648438	335.3410339355469	84.25205230712891	1676.7958984375	125.4007949829102	272.58203125	1714.066650390625	226.8710327148438	158.0732727050781	1702.557006835938	282.8472900390625	203.2918853759766	1696.938598632812	61.49030303955078	312.6889038085938	995.2035522460938	-7.353038787841797	43.60089111328125	1001.235717773438	249.7737426757812	132.6145629882812	1036.39599609375	283.01904296875	339.3723754882812	1040.156616210938	128.5466461181641	408.7394104003906	500.5752258300781	70.65762329101562	396.7327270507812	647.9796142578125	52.07538604736328	161.7078247070312	210.4006500244141	-236.7344055175781	305.5858764648438	353.9761047363281	-80.81644439697266	251.0271301269531	68.37326049804688	-106.8071441650391	192.1517028808594	100.4542846679688	-97.90868377685547	231.6631164550781	124.8370590209961	-214.8434143066406	92.72753143310547	252.5419006347656	-212.7353820800781	164.8839874267578	506.336669921875	261.2486877441406	103.0208435058594	773.435546875	305.6144714355469	196.4309234619141	32.9998779296875	151.4859619140625	201.8668212890625	388.296142578125	256.4212036132812	309.2886352539062	43.78359222412109	348.0638427734375	331.6422119140625	43.72400665283203	281.7156982421875	205.4025268554688	37.54777145385742	269.6982116699219	242.0109405517578	33.44375228881836	81.03279113769531	
